<?xml version="1.0" encoding="UTF-8" standalone="no"?>
<!DOCTYPE svg PUBLIC "-//W3C//DTD SVG 1.1//EN" "http://www.w3.org/Graphics/SVG/1.1/DTD/svg11.dtd">
<svg width="100%" height="100%" viewBox="0 0 1080 627" version="1.1" xmlns="http://www.w3.org/2000/svg" xmlns:xlink="http://www.w3.org/1999/xlink" xml:space="preserve" xmlns:serif="http://www.serif.com/" style="fill-rule:evenodd;clip-rule:evenodd;stroke-linejoin:round;stroke-miterlimit:2;">
    <g transform="matrix(1,0,0,1,-1987.69,-170.678)">
        <g transform="matrix(0.914786,0,0,0.828211,2079.73,-894.216)">
            <path d="M1080,1332.8L1080,2041.8L-100.603,2041.8L-100.603,1332.8C-100.603,1332.8 58.118,1409.31 129.954,1405.17C201.789,1401.03 263.138,1309.9 330.408,1307.98C397.679,1306.06 479.307,1393.46 533.577,1393.66C583.171,1393.83 615.142,1317.06 656.028,1309.14C696.915,1301.23 736.261,1349.69 778.894,1346.19C826.232,1342.31 889.867,1288.08 940.051,1285.85C989.208,1283.66 1080,1332.8 1080,1332.8Z" style="fill:rgb(26,22,84);"/>
        </g>
    </g>
</svg>
